<?xml version="1.0"?>
<svg version="1.1" xmlns="http://www.w3.org/2000/svg" width="111" height="130" style=""><path fill="#4b87b3" d="M27.93896484375,74.787109375l-5.671875-18.48193359375l-0.14501953125,0q0.30615234375,5.6396484375,0.30615234375,7.52490234375l0,10.95703125l-4.46337890625,0l0-23.5576171875l6.7998046875,0l5.5751953125,18.0146484375l0.0966796875,0l5.91357421875-18.0146484375l6.7998046875,0l0,23.5576171875l-4.65673828125,0l0-11.150390625q0-0.78955078125,0.024169921875-1.82080078125t0.217529296875-5.478515625l-0.14501953125,0l-6.07470703125,18.44970703125l-4.576171875,0z M56.342973632813,62.3154296875l1.6435546875,0q2.30419921875,0,3.4482421875-0.910400390625t1.14404296875-2.650634765625q0-1.75634765625-0.958740234375-2.59423828125t-3.005126953125-0.837890625l-2.27197265625,0l0,6.9931640625z M67.622270507813,58.5771484375q0,3.802734375-2.376708984375,5.81689453125t-6.759521484375,2.01416015625l-2.14306640625,0l0,8.37890625l-4.9951171875,0l0-23.5576171875l7.52490234375,0q4.2861328125,0,6.517822265625,1.844970703125t2.231689453125,5.502685546875z M81.669345703125,60.9296875l4.91455078125-9.7001953125l5.3818359375,0l-7.81494140625,14.38916015625l0,9.16845703125l-4.962890625,0l0-9.00732421875l-7.81494140625-14.55029296875l5.4140625,0z M111.10460449219,68.2451171875q0,3.1904296875-2.296142578125,5.02734375t-6.388916015625,1.8369140625q-3.7705078125,0-6.6708984375-1.41796875l0-4.640625q2.384765625,1.0634765625,4.036376953125,1.49853515625t3.021240234375,0.43505859375q1.6435546875,0,2.521728515625-0.62841796875t0.878173828125-1.869140625q0-0.69287109375-0.38671875-1.232666015625t-1.135986328125-1.039306640625t-3.053466796875-1.59521484375q-2.1591796875-1.01513671875-3.23876953125-1.94970703125t-1.72412109375-2.17529296875t-0.64453125-2.900390625q0-3.1259765625,2.118896484375-4.91455078125t5.857177734375-1.78857421875q1.8369140625,0,3.504638671875,0.43505859375t3.488525390625,1.224609375l-1.611328125,3.88330078125q-1.88525390625-0.7734375-3.117919921875-1.07958984375t-2.425048828125-0.30615234375q-1.41796875,0-2.17529296875,0.66064453125t-0.75732421875,1.72412109375q0,0.66064453125,0.30615234375,1.152099609375t0.974853515625,0.95068359375t3.166259765625,1.651611328125q3.30322265625,1.5791015625,4.52783203125,3.166259765625t1.224609375,3.891357421875z"/><path fill="#" d=""/></svg>
